<svg width="16" height="16" viewBox="0 0 16 16" version="1.1" xmlns="http://www.w3.org/2000/svg">
    <g>
        <path fill="#6e6e6e"
              d="m 13.289605,3.843545 c 0.34022,0.3404 0.51038,0.7536 0.51038,1.2398 0,0.4859 -0.17006,0.89913 -0.51038,1.23945 -0.34023,0.3402 -0.75337,0.51029 -1.23958,0.51029 -0.31596,0 -0.60916,-0.07876 -0.87954,-0.23675 -0.2704,-0.15797 -0.48161,-0.37046 -0.63345,-0.63799 -0.31596,0 -0.59406,0.02567 -0.83404,0.07722 -0.23998,0.05179 -0.45103,0.13677 -0.63345,0.25521 -0.18233,0.11876 -0.33716,0.24155 -0.46483,0.36925 -0.12767,0.12773 -0.24758,0.30699 -0.36005,0.53787 -0.11241,0.23085 -0.20649,0.44519 -0.28256,0.64261 -0.07583,0.19743 -0.16544,0.46336 -0.26878,0.79755 -0.18845,0.60772 -0.36149,1.07552 -0.51958,1.40368 h 4.53008 c 0.15181,-0.26737 0.36299,-0.48006 0.63339,-0.63802 0.27041,-0.15794 0.56364,-0.23692 0.8796,-0.23692 0.48605,0 0.89929,0.17007 1.23951,0.51039 0.3402,0.34019 0.51042,0.75333 0.51042,1.23951 0,0.48622 -0.1701,0.89936 -0.51042,1.23968 -0.34022,0.34019 -0.75346,0.51038 -1.23951,0.51038 -0.31596,0 -0.60919,-0.07898 -0.8796,-0.23691 -0.2704,-0.15797 -0.48158,-0.37062 -0.63339,-0.63802 h -7.47418 c 0,-1.75009 0,0 0,-1.75009 h 0.237 c 0.4192,0 0.7229,-0.12608 0.9113,-0.37822 0.1885,-0.25214 0.4042,-0.76712 0.64717,-1.545 0.26134,-0.82044 0.50758,-1.4373 0.73856,-1.85047 0.77152,-1.3611 2.0294,-2.0477 3.77339,-2.0598 0.15181,-0.2676 0.36305,-0.4801 0.63346,-0.638 0.2704,-0.1579 0.56357,-0.237 0.87953,-0.237 0.48609,-10e-5 0.89923,0.1701 1.23955,0.5103 z"/>
        <path fill="#62B543"
              d="m 4.229645,11.791825 c -0.1141788,0.277075 -0.3631,0.48005 -0.6334,0.63802 -0.2705,0.15793 -0.5638,0.23691 -0.8796,0.23691 -0.4861,0 -0.8993,-0.17006 -1.2395,-0.51038 -0.3402,-0.34032 -0.5104,-0.75356 -0.5104,-1.23968 0,-0.48609 0.1702,-0.89932 0.5104,-1.23951 0.3402,-0.34023 0.7534,-0.51039 1.2395,-0.51039 0.3158,0 0.6091,0.07898 0.8796,0.23692 0.2703,0.15799 0.5192212,0.3609452 0.6334,0.63802 0.2222639,0.539362 0.2222639,1.210728 0,1.75009 z"/>
    </g>
</svg>
