<svg width="16" height="16" viewBox="0 0 16 16" version="1.1" xmlns="http://www.w3.org/2000/svg">
    <g fill="none" fill-rule="evenodd">
        <polygon fill="#F4AF3D" fill-opacity=".7" points="1 16 16 16 16 9 1 9"/>
        <polygon fill="#9AA7B0" fill-opacity=".8" points="7 1 3 5 7 5"/>
        <polygon fill="#9AA7B0" fill-opacity=".8" points="8 1 8 6 3 6 3 8 13 8 13 1"/>
        <path fill="#231f20" fill-opacity="0.7"
              d="M 3.272768,11.501526 C 3.272768,11.133057 3.584,11 4.145,11 c 0.00533,0 0.3903333,0 1.155,0 v -1 c -0.7373333,0 -1.1173333,0 -1.14,0 -1.082,0 -1.86,0.459167 -1.86,1.45 0,0.864526 0.4195557,1.240491 1.4712524,1.466077 C 4.5415887,13.081312 4.796155,13.228629 4.796155,13.548 4.796155,13.867371 4.4384277,14 3.7712524,14 3.7605858,14 3.3701683,14 2.6,14 v 1 c 0.7755016,0 1.1659191,0 1.1712524,0 C 5.8,15 5.8,14 5.8,13.548 5.8,12.916077 5.3202637,12.420715 4.4586914,12.146851 3.5971191,11.872986 3.272768,11.869995 3.272768,11.501526 Z"/>
        <path fill="#231f20" fill-opacity="0.7"
              d="M 7.8433841,15 6.01325,10 h 0.9574298 c 0.9482552,2.616111 1.4269036,3.949444 1.4359452,4 L 9.8427298,10 H 10.8 l -1.8301341,5 z"/>
    </g>
</svg>
